<mxfile host="app.diagrams.net" modified="2022-02-24T10:18:10.178Z" agent="5.0 (Windows NT 10.0; Win64; x64) AppleWebKit/537.36 (KHTML, like Gecko) Chrome/98.0.4758.102 Safari/537.36" etag="c5LHHhLA0QTicCSXDmLe" version="16.6.3" type="github">
  <diagram id="yPxyJZ8AM_hMuL3Unpa9" name="gitflow">
    <mxGraphModel dx="981" dy="615" grid="1" gridSize="10" guides="1" tooltips="1" connect="1" arrows="1" fold="1" page="1" pageScale="1" pageWidth="850" pageHeight="1100" math="0" shadow="0">
      <root>
        <mxCell id="0" />
        <mxCell id="1" parent="0" />
        <mxCell id="3" value="" style="endArrow=none;dashed=1;html=1;fillColor=#dae8fc;strokeColor=#6c8ebf;" parent="1" source="12" target="7" edge="1">
          <mxGeometry width="50" height="50" relative="1" as="geometry">
            <mxPoint x="40" y="70" as="sourcePoint" />
            <mxPoint x="720" y="70" as="targetPoint" />
          </mxGeometry>
        </mxCell>
        <mxCell id="22" style="edgeStyle=orthogonalEdgeStyle;rounded=1;orthogonalLoop=1;jettySize=auto;html=1;dashed=1;endArrow=none;endFill=0;fillColor=#d5e8d4;strokeColor=#82b366;entryX=0;entryY=0.5;entryDx=0;entryDy=0;" parent="1" source="4" target="21" edge="1">
          <mxGeometry relative="1" as="geometry">
            <Array as="points">
              <mxPoint x="40" y="120" />
            </Array>
          </mxGeometry>
        </mxCell>
        <mxCell id="4" value="1.0" style="ellipse;whiteSpace=wrap;html=1;aspect=fixed;fillColor=#dae8fc;strokeColor=#6c8ebf;fontStyle=1;labelPosition=center;verticalLabelPosition=top;align=center;verticalAlign=bottom;fontColor=#0066CC;" parent="1" vertex="1">
          <mxGeometry x="30" y="60" width="20" height="20" as="geometry" />
        </mxCell>
        <mxCell id="7" value="Master" style="text;html=1;strokeColor=#6c8ebf;fillColor=#dae8fc;align=center;verticalAlign=middle;whiteSpace=wrap;rounded=0;" parent="1" vertex="1">
          <mxGeometry x="820" y="60" width="90" height="20" as="geometry" />
        </mxCell>
        <mxCell id="12" value="2.1" style="ellipse;whiteSpace=wrap;html=1;aspect=fixed;fillColor=#dae8fc;strokeColor=#6c8ebf;fontStyle=1;labelPosition=center;verticalLabelPosition=top;align=center;verticalAlign=bottom;fontColor=#0066CC;" parent="1" vertex="1">
          <mxGeometry x="720" y="60" width="20" height="20" as="geometry" />
        </mxCell>
        <mxCell id="13" value="" style="endArrow=none;dashed=1;html=1;fillColor=#dae8fc;strokeColor=#6c8ebf;" parent="1" source="6" target="12" edge="1">
          <mxGeometry width="50" height="50" relative="1" as="geometry">
            <mxPoint x="50" y="70" as="sourcePoint" />
            <mxPoint x="700" y="70" as="targetPoint" />
          </mxGeometry>
        </mxCell>
        <mxCell id="172" style="edgeStyle=orthogonalEdgeStyle;rounded=1;orthogonalLoop=1;jettySize=auto;html=1;dashed=1;endArrow=none;endFill=0;fontSize=12;fontColor=#FFB570;fillColor=#e1d5e7;strokeColor=#9673a6;entryX=0;entryY=0.5;entryDx=0;entryDy=0;" parent="1" source="21" target="51" edge="1">
          <mxGeometry relative="1" as="geometry">
            <Array as="points">
              <mxPoint x="90" y="170" />
            </Array>
            <mxPoint x="90" y="170" as="targetPoint" />
          </mxGeometry>
        </mxCell>
        <mxCell id="21" value="" style="ellipse;whiteSpace=wrap;html=1;aspect=fixed;fillColor=#d5e8d4;strokeColor=#82b366;" parent="1" vertex="1">
          <mxGeometry x="70" y="110" width="20" height="20" as="geometry" />
        </mxCell>
        <mxCell id="24" value="Develop" style="text;html=1;strokeColor=#82b366;fillColor=#d5e8d4;align=center;verticalAlign=middle;whiteSpace=wrap;rounded=0;" parent="1" vertex="1">
          <mxGeometry x="820" y="110" width="90" height="20" as="geometry" />
        </mxCell>
        <mxCell id="6" value="2.0" style="ellipse;whiteSpace=wrap;html=1;aspect=fixed;fillColor=#dae8fc;strokeColor=#6c8ebf;fontStyle=1;labelPosition=center;verticalLabelPosition=top;align=center;verticalAlign=bottom;fontColor=#0066CC;" parent="1" vertex="1">
          <mxGeometry x="640" y="60" width="20" height="20" as="geometry" />
        </mxCell>
        <mxCell id="35" value="" style="endArrow=none;dashed=1;html=1;fillColor=#dae8fc;strokeColor=#6c8ebf;" parent="1" source="4" target="6" edge="1">
          <mxGeometry width="50" height="50" relative="1" as="geometry">
            <mxPoint x="49.9999999999917" y="70" as="sourcePoint" />
            <mxPoint x="690" y="70" as="targetPoint" />
            <Array as="points" />
          </mxGeometry>
        </mxCell>
        <mxCell id="-AOXHBGoJkbNINYSZUNP-183" value="" style="edgeStyle=orthogonalEdgeStyle;rounded=1;orthogonalLoop=1;jettySize=auto;html=1;dashed=1;fontFamily=Courier New;fontSize=10;endArrow=none;endFill=0;strokeColor=#F2CE61;exitX=0.5;exitY=1;exitDx=0;exitDy=0;entryX=0;entryY=0.5;entryDx=0;entryDy=0;" edge="1" parent="1" source="39" target="-AOXHBGoJkbNINYSZUNP-182">
          <mxGeometry relative="1" as="geometry" />
        </mxCell>
        <mxCell id="39" value="&lt;pre&gt;&lt;span style=&quot;color: rgb(23 , 43 , 77) ; font-family: , &amp;#34;sf mono&amp;#34; , &amp;#34;segoe ui mono&amp;#34; , &amp;#34;roboto mono&amp;#34; , &amp;#34;ubuntu mono&amp;#34; , &amp;#34;menlo&amp;#34; , &amp;#34;consolas&amp;#34; , &amp;#34;courier&amp;#34; , monospace ; background-color: rgb(244 , 245 , 247)&quot;&gt;&lt;font style=&quot;font-size: 10px ; line-height: 1&quot;&gt;subtask/ZBS-9158_create-radiostation-section&lt;/font&gt;&lt;/span&gt;&lt;/pre&gt;" style="ellipse;whiteSpace=wrap;html=1;aspect=fixed;fontSize=10;labelPosition=center;verticalLabelPosition=top;align=left;verticalAlign=bottom;fillColor=#ffe6cc;strokeColor=#d79b00;fontColor=#FFB570;spacing=0;" parent="1" vertex="1">
          <mxGeometry x="149.99999999999997" y="210" width="20" height="20" as="geometry" />
        </mxCell>
        <mxCell id="42" value="Subtask" style="text;html=1;strokeColor=#d79b00;fillColor=#ffe6cc;align=center;verticalAlign=middle;whiteSpace=wrap;rounded=0;fontSize=12;" parent="1" vertex="1">
          <mxGeometry x="820" y="210" width="90" height="20" as="geometry" />
        </mxCell>
        <mxCell id="85" value="Feature" style="text;html=1;strokeColor=#9673a6;fillColor=#e1d5e7;align=center;verticalAlign=middle;whiteSpace=wrap;rounded=0;" parent="1" vertex="1">
          <mxGeometry x="820" y="160" width="90" height="20" as="geometry" />
        </mxCell>
        <mxCell id="-AOXHBGoJkbNINYSZUNP-178" style="edgeStyle=orthogonalEdgeStyle;rounded=1;orthogonalLoop=1;jettySize=auto;html=1;exitX=0.5;exitY=1;exitDx=0;exitDy=0;dashed=1;fillColor=#fff2cc;strokeColor=#F2CE61;entryX=0;entryY=0.5;entryDx=0;entryDy=0;endArrow=none;endFill=0;" edge="1" parent="1" source="51" target="39">
          <mxGeometry relative="1" as="geometry">
            <mxPoint x="150" y="200" as="targetPoint" />
            <Array as="points">
              <mxPoint x="120" y="220" />
            </Array>
          </mxGeometry>
        </mxCell>
        <mxCell id="51" value="&lt;pre style=&quot;line-height: 1&quot;&gt;feature/ZP-1357_radiostation-aggregation&lt;/pre&gt;" style="ellipse;whiteSpace=wrap;aspect=fixed;fontSize=10;fillColor=#e1d5e7;strokeColor=#9673a6;labelPosition=center;verticalLabelPosition=top;align=left;verticalAlign=bottom;spacing=0;horizontal=1;html=1;" parent="1" vertex="1">
          <mxGeometry x="110" y="160" width="20" height="20" as="geometry" />
        </mxCell>
        <mxCell id="102" value="Development" style="text;html=1;strokeColor=#666666;fillColor=#f5f5f5;align=center;verticalAlign=middle;whiteSpace=wrap;rounded=0;fontColor=#333333;" parent="1" vertex="1">
          <mxGeometry x="810" y="370" width="90" height="20" as="geometry" />
        </mxCell>
        <mxCell id="-AOXHBGoJkbNINYSZUNP-185" value="" style="edgeStyle=orthogonalEdgeStyle;rounded=1;orthogonalLoop=1;jettySize=auto;html=1;dashed=1;fontFamily=Courier New;fontSize=10;endArrow=none;endFill=0;strokeColor=#F2CE61;" edge="1" parent="1" source="-AOXHBGoJkbNINYSZUNP-182" target="-AOXHBGoJkbNINYSZUNP-184">
          <mxGeometry relative="1" as="geometry">
            <Array as="points">
              <mxPoint x="200" y="300" />
            </Array>
          </mxGeometry>
        </mxCell>
        <mxCell id="-AOXHBGoJkbNINYSZUNP-182" value="&lt;pre&gt;&lt;span style=&quot;color: rgb(23 , 43 , 77) ; font-family: , &amp;#34;sf mono&amp;#34; , &amp;#34;segoe ui mono&amp;#34; , &amp;#34;roboto mono&amp;#34; , &amp;#34;ubuntu mono&amp;#34; , &amp;#34;menlo&amp;#34; , &amp;#34;consolas&amp;#34; , &amp;#34;courier&amp;#34; , monospace ; background-color: rgb(244 , 245 , 247)&quot;&gt;&lt;font style=&quot;font-size: 10px ; line-height: 1&quot;&gt;subtask/ZBS-9162&lt;/font&gt;&lt;/span&gt;&lt;/pre&gt;" style="ellipse;whiteSpace=wrap;html=1;aspect=fixed;fontSize=10;labelPosition=center;verticalLabelPosition=top;align=left;verticalAlign=bottom;fillColor=#ffe6cc;strokeColor=#d79b00;fontColor=#FFB570;spacing=0;" vertex="1" parent="1">
          <mxGeometry x="209.99999999999997" y="250" width="20" height="20" as="geometry" />
        </mxCell>
        <mxCell id="-AOXHBGoJkbNINYSZUNP-189" value="" style="edgeStyle=orthogonalEdgeStyle;rounded=1;orthogonalLoop=1;jettySize=auto;html=1;dashed=1;fontFamily=Courier New;fontSize=10;endArrow=none;endFill=0;strokeColor=#F2CE61;" edge="1" parent="1" source="-AOXHBGoJkbNINYSZUNP-184" target="-AOXHBGoJkbNINYSZUNP-188">
          <mxGeometry relative="1" as="geometry">
            <Array as="points">
              <mxPoint x="270" y="350" />
            </Array>
          </mxGeometry>
        </mxCell>
        <mxCell id="-AOXHBGoJkbNINYSZUNP-184" value="&lt;pre&gt;&lt;span style=&quot;color: rgb(23 , 43 , 77) ; font-family: , &amp;#34;sf mono&amp;#34; , &amp;#34;segoe ui mono&amp;#34; , &amp;#34;roboto mono&amp;#34; , &amp;#34;ubuntu mono&amp;#34; , &amp;#34;menlo&amp;#34; , &amp;#34;consolas&amp;#34; , &amp;#34;courier&amp;#34; , monospace ; background-color: rgb(244 , 245 , 247)&quot;&gt;&lt;font style=&quot;font-size: 10px ; line-height: 1&quot;&gt;subtask/ZBS-9164&lt;/font&gt;&lt;/span&gt;&lt;/pre&gt;" style="ellipse;whiteSpace=wrap;html=1;aspect=fixed;fontSize=10;labelPosition=center;verticalLabelPosition=top;align=left;verticalAlign=bottom;fillColor=#ffe6cc;strokeColor=#d79b00;fontColor=#FFB570;spacing=0;" vertex="1" parent="1">
          <mxGeometry x="260" y="290" width="20" height="20" as="geometry" />
        </mxCell>
        <mxCell id="-AOXHBGoJkbNINYSZUNP-191" value="" style="edgeStyle=orthogonalEdgeStyle;rounded=1;orthogonalLoop=1;jettySize=auto;html=1;dashed=1;fontFamily=Courier New;fontSize=10;endArrow=none;endFill=0;strokeColor=#F2CE61;" edge="1" parent="1" source="-AOXHBGoJkbNINYSZUNP-188" target="-AOXHBGoJkbNINYSZUNP-190">
          <mxGeometry relative="1" as="geometry">
            <Array as="points">
              <mxPoint x="320" y="390" />
            </Array>
          </mxGeometry>
        </mxCell>
        <mxCell id="-AOXHBGoJkbNINYSZUNP-188" value="&lt;pre&gt;&lt;span style=&quot;color: rgb(23 , 43 , 77) ; font-family: , &amp;#34;sf mono&amp;#34; , &amp;#34;segoe ui mono&amp;#34; , &amp;#34;roboto mono&amp;#34; , &amp;#34;ubuntu mono&amp;#34; , &amp;#34;menlo&amp;#34; , &amp;#34;consolas&amp;#34; , &amp;#34;courier&amp;#34; , monospace ; background-color: rgb(244 , 245 , 247)&quot;&gt;&lt;font style=&quot;font-size: 10px ; line-height: 1&quot;&gt;subtask/ZBS-9165&lt;/font&gt;&lt;/span&gt;&lt;/pre&gt;" style="ellipse;whiteSpace=wrap;html=1;aspect=fixed;fontSize=10;labelPosition=center;verticalLabelPosition=top;align=left;verticalAlign=bottom;fillColor=#ffe6cc;strokeColor=#d79b00;fontColor=#FFB570;spacing=0;" vertex="1" parent="1">
          <mxGeometry x="310" y="340" width="20" height="20" as="geometry" />
        </mxCell>
        <mxCell id="-AOXHBGoJkbNINYSZUNP-190" value="&lt;pre&gt;&lt;span style=&quot;color: rgb(23 , 43 , 77) ; font-family: , &amp;#34;sf mono&amp;#34; , &amp;#34;segoe ui mono&amp;#34; , &amp;#34;roboto mono&amp;#34; , &amp;#34;ubuntu mono&amp;#34; , &amp;#34;menlo&amp;#34; , &amp;#34;consolas&amp;#34; , &amp;#34;courier&amp;#34; , monospace ; background-color: rgb(244 , 245 , 247)&quot;&gt;&lt;font style=&quot;font-size: 10px ; line-height: 1&quot;&gt;subtask/ZBS-9166&lt;/font&gt;&lt;/span&gt;&lt;/pre&gt;" style="ellipse;whiteSpace=wrap;html=1;aspect=fixed;fontSize=10;labelPosition=center;verticalLabelPosition=top;align=left;verticalAlign=bottom;fillColor=#ffe6cc;strokeColor=#d79b00;fontColor=#FFB570;spacing=0;" vertex="1" parent="1">
          <mxGeometry x="380" y="380" width="20" height="20" as="geometry" />
        </mxCell>
      </root>
    </mxGraphModel>
  </diagram>
</mxfile>
